<svg xmlns="http://www.w3.org/2000/svg" version="1.1" xmlns:xlink="http://www.w3.org/1999/xlink" width="1080" height="1080"><svg xmlns="http://www.w3.org/2000/svg" xmlns:xlink="http://www.w3.org/1999/xlink" version="1.1" width="1080" height="1080" viewBox="0 0 1080 1080" xml:space="preserve">
<desc>Created with Fabric.js 5.2.4</desc>
<defs>
</defs>
<g transform="matrix(1 0 0 1 540 540)" id="SvgjsG1127">
<rect style="stroke: none; stroke-width: 1; stroke-dasharray: none; stroke-linecap: butt; stroke-dashoffset: 0; stroke-linejoin: miter; stroke-miterlimit: 4; fill: rgb(255,255,255); fill-rule: nonzero; opacity: 1; visibility: hidden;" vector-effect="non-scaling-stroke" x="-540" y="-540" rx="0" ry="0" width="1080" height="1080"></rect>
</g>
<g transform="matrix(1 0 0 1 540 540)" id="SvgjsG1126">
</g>
<g transform="matrix(2.11 0 0 2.11 550.98 567.98)">
<path style="stroke: none; stroke-width: 1; stroke-dasharray: none; stroke-linecap: butt; stroke-dashoffset: 0; stroke-linejoin: miter; stroke-miterlimit: 4; fill: rgb(0,90,156); fill-rule: nonzero; opacity: 1;" vector-effect="non-scaling-stroke" transform=" translate(-261.21, -248)" d="M 469.198 474.667 C 469.198 474.667 398.058 354.707 454.896 244.267 C 518.25 127.291 466.571 21.3334 466.571 21.3334 L 61.8011 21.3334 C 61.8011 21.3334 113.468 127.275 56.6766 244.234 C 5.81156 354.7 64.6985 474.667 64.6985 474.667 L 469.198 474.667 Z" stroke-linecap="round"></path>
</g>
<g transform="matrix(2.11 0 0 2.11 540 574.82)" style="">
		<text xml:space="preserve" font-family="Public Sans, sans-serif" font-size="280" font-style="normal" font-weight="900" style="stroke: none; stroke-width: 1; stroke-dasharray: none; stroke-linecap: butt; stroke-dashoffset: 0; stroke-linejoin: miter; stroke-miterlimit: 4; fill: rgb(255,255,255); fill-rule: nonzero; opacity: 1; white-space: pre;"><tspan x="-108.9" y="87.96">A</tspan></text>
</g>
</svg><style>@media (prefers-color-scheme: light) { :root { filter: none; } }
@media (prefers-color-scheme: dark) { :root { filter: none; } }
</style></svg>